<svg id="Layer_1" data-name="Layer 1" xmlns="http://www.w3.org/2000/svg" viewBox="0 0 36 16">
  <defs>
    <style>
      .cls-1 {
        fill: #47b5ff;
      }
    </style>
  </defs>
  <path class="cls-1" d="M21,9.54a1.68,1.68,0,0,1,0-3.08L33,.27A2,2,0,0,1,35.74,1a2.12,2.12,0,0,1,.26.83V14.18A2,2,0,0,1,33.83,16a1.88,1.88,0,0,1-.83-.26Z"/>
  <path class="cls-1" d="M1,9.54A1.68,1.68,0,0,1,1,6.46L13,.27A2,2,0,0,1,15.74,1a2.12,2.12,0,0,1,.26.83V14.18A2,2,0,0,1,13.83,16a1.88,1.88,0,0,1-.83-.26Z"/>
</svg>
