<svg id="Layer_1" data-name="Layer 1" xmlns="http://www.w3.org/2000/svg" viewBox="0 0 56 16">
  <defs>
    <style>
      .cls-1 {
        fill: #47b5ff;
      }
    </style>
  </defs>
  <path class="cls-1" d="M41,9.54a1.68,1.68,0,0,1,0-3.08L53,.27A2,2,0,0,1,55.74,1a2.12,2.12,0,0,1,.26.83V14.18A2,2,0,0,1,53.83,16a1.88,1.88,0,0,1-.83-.26Z"/>
  <path class="cls-1" d="M21,9.54a1.68,1.68,0,0,1,0-3.08L33,.27A2,2,0,0,1,35.74,1a2.12,2.12,0,0,1,.26.83V14.18A2,2,0,0,1,33.83,16a1.88,1.88,0,0,1-.83-.26Z"/>
  <circle class="cls-1" cx="8" cy="8" r="8"/>
</svg>
